<svg width="1073" height="69" viewBox="0 0 1073 69" fill="none" xmlns="http://www.w3.org/2000/svg">
<path d="M697 1H1072.36V68H697V1Z" fill="#5B4E2B"/>
<path fill-rule="evenodd" clip-rule="evenodd" d="M709.606 68.6692L763.523 34.5019L709.606 0.334595L709.606 0.463943H354.247V68.5397H709.606L709.606 68.6692Z" fill="#9B844A"/>
<path fill-rule="evenodd" clip-rule="evenodd" d="M355.359 68.3346L409.276 34.1673L355.359 -7.62939e-06L355.359 0.129341H0V68.2051H355.359L355.359 68.3346Z" fill="#CFB165"/>
<path d="M203.24 49V20.76H209.48V49H203.24ZM197.8 26.08V20.76H209.08V26.08H197.8Z" fill="white"/>
<path d="M547.96 46.48L558.8 35.28C559.467 34.6133 560 34 560.4 33.44C560.8 32.88 561.093 32.36 561.28 31.88C561.467 31.3733 561.56 30.8667 561.56 30.36C561.56 29.2667 561.2 28.4133 560.48 27.8C559.787 27.16 558.867 26.84 557.72 26.84C556.6 26.84 555.587 27.1467 554.68 27.76C553.8 28.3467 552.947 29.32 552.12 30.68L547.92 27.04C549.04 25.1467 550.467 23.72 552.2 22.76C553.933 21.8 555.92 21.32 558.16 21.32C560.107 21.32 561.787 21.68 563.2 22.4C564.64 23.12 565.747 24.1467 566.52 25.48C567.32 26.8133 567.72 28.3733 567.72 30.16C567.72 31.28 567.573 32.32 567.28 33.28C566.987 34.2133 566.507 35.1467 565.84 36.08C565.2 36.9867 564.333 37.9867 563.24 39.08L555.72 46.56L547.96 46.48ZM547.96 50V46.48L553.28 44.64H568.28V50H547.96Z" fill="white"/>
<path d="M885.12 50.44C883.173 50.44 881.387 50.1067 879.76 49.44C878.133 48.7467 876.76 47.76 875.64 46.48L879.68 42.44C880.187 43.1867 880.92 43.8 881.88 44.28C882.867 44.7333 883.907 44.96 885 44.96C885.987 44.96 886.84 44.7867 887.56 44.44C888.28 44.0933 888.84 43.6 889.24 42.96C889.667 42.32 889.88 41.56 889.88 40.68C889.88 39.8 889.667 39.0533 889.24 38.44C888.84 37.8 888.24 37.3067 887.44 36.96C886.667 36.6133 885.733 36.44 884.64 36.44C884.133 36.44 883.6 36.48 883.04 36.56C882.507 36.6133 882.053 36.7067 881.68 36.84L884.44 33.36C885.187 33.1467 885.893 32.9733 886.56 32.84C887.253 32.68 887.893 32.6 888.48 32.6C889.92 32.6 891.213 32.9467 892.36 33.64C893.507 34.3067 894.413 35.2667 895.08 36.52C895.773 37.7467 896.12 39.2133 896.12 40.92C896.12 42.7867 895.653 44.44 894.72 45.88C893.813 47.32 892.533 48.44 890.88 49.24C889.253 50.04 887.333 50.44 885.12 50.44ZM881.68 36.84V33.36L888.56 25.28L895.6 25.24L888.44 33.4L881.68 36.84ZM877.4 27.08V21.76H895.6V25.24L890.68 27.08H877.4Z" fill="white"/>
</svg>
